# xmcd
#
# Track frame offsets: 
#        150
#        18193
#        32046
#        49555
#        63944
#        77825
#        92884
#        107413
#        122771
#        137751
#        156815
#        171906
#        192522
#
# Disc length: 2678 seconds
#
# Revision: 0
# Processed by: cddbd v1.5.1PL0 Copyright (c) Steve Scherf et al.
# Submitted via: ExactAudioCopy v0.90b4
#
DISCID=a40a740d
DTITLE=Ricochet - The Live Album
DYEAR=2004
DGENRE=Country
TTITLE0=Ease My Troubled Mind
TTITLE1=You Still Got It
TTITLE2=What Do I Know
TTITLE3=When Will I Be Loved
TTITLE4=Love is Stronger Than Pride
TTITLE5=He Left A Lot To Be Desired
TTITLE6=Blink Of An Eye
TTITLE7=Seven Bridges Road
TTITLE8=I Can't Dance
TTITLE9=Feel Like Fallin'
TTITLE10=That's Love
TTITLE11=Daddy's Money
TTITLE12=The Star Spangled Banner
EXTD=
EXTT0=
EXTT1=
EXTT2=
EXTT3=
EXTT4=
EXTT5=
EXTT6=
EXTT7=
EXTT8=
EXTT9=
EXTT10=
EXTT11=
EXTT12=
PLAYORDER=
